<?xml version="1.0" encoding="UTF-8" standalone="no"?>
<svg
   xmlns:dc="http://purl.org/dc/elements/1.1/"
   xmlns:cc="http://creativecommons.org/ns#"
   xmlns:rdf="http://www.w3.org/1999/02/22-rdf-syntax-ns#"
   xmlns:svg="http://www.w3.org/2000/svg"
   xmlns="http://www.w3.org/2000/svg"
   viewBox="0 0 575.12402 526.66669"
   height="526.66669"
   width="575.12402"
   xml:space="preserve"
   id="svg2"
   version="1.1"><metadata
     id="metadata8"><rdf:RDF><cc:Work
         rdf:about=""><dc:format>image/svg+xml</dc:format><dc:type
           rdf:resource="http://purl.org/dc/dcmitype/StillImage" /></cc:Work></rdf:RDF></metadata><defs
     id="defs6"><clipPath
       id="clipPath18"
       clipPathUnits="userSpaceOnUse"><path
         id="path16"
         d="M 0,395 H 431.343 V 0 H 0 Z" /></clipPath></defs><g
     transform="matrix(1.3333333,0,0,-1.3333333,0,526.66667)"
     id="g10"><g
       id="g12"><g
         clip-path="url(#clipPath18)"
         id="g14"><g
           transform="translate(68.1738,257.4316)"
           id="g20"><path
             id="path22"
             style="fill:#ffffff;fill-opacity:1;fill-rule:nonzero;stroke:none"
             d="m 0,0 c -25.812,0 -46.739,20.928 -46.739,46.74 0,25.813 20.927,46.74 46.739,46.74 25.813,0 46.74,-20.927 46.74,-46.74 C 46.74,20.928 25.813,0 0,0 m 0,114.914 c -37.652,0 -68.174,-30.522 -68.174,-68.174 0,-37.651 30.522,-68.174 68.174,-68.174 37.653,0 68.175,30.523 68.175,68.174 0,37.652 -30.522,68.174 -68.175,68.174" /></g><g
           transform="translate(119.4609,303.8027)"
           id="g24"><path
             id="path26"
             style="fill:#ffcb31;fill-opacity:1;fill-rule:nonzero;stroke:none"
             d="m 0,0 c 0,28.295 -23.222,51.229 -51.517,51.229 -28.292,0 -50.266,-22.934 -50.266,-51.229 0,-22.508 13.665,-41.611 35.665,-48.485 v -36.318 h 32 v 36.318 C -15.118,-41.611 0,-22.508 0,0" /></g><path
           id="path28"
           style="fill:#bcbec0;fill-opacity:1;fill-rule:nonzero;stroke:#231f20;stroke-width:6;stroke-linecap:butt;stroke-linejoin:round;stroke-miterlimit:10;stroke-dasharray:none;stroke-opacity:1"
           d="m 85.343,199 h -32 v 20 h 32 z" /><g
           transform="translate(68.3432,219)"
           id="g30"><path
             id="path32"
             style="fill:none;stroke:#231f20;stroke-width:6;stroke-linecap:butt;stroke-linejoin:round;stroke-miterlimit:10;stroke-dasharray:none;stroke-opacity:1"
             d="M 0,0 V 85" /></g><g
           transform="translate(60.3432,304)"
           id="g34"><path
             id="path36"
             style="fill:none;stroke:#231f20;stroke-width:6;stroke-linecap:butt;stroke-linejoin:round;stroke-miterlimit:10;stroke-dasharray:none;stroke-opacity:1"
             d="M 0,0 H 17" /></g><g
           transform="translate(44.7924,329.9707)"
           id="g38"><path
             id="path40"
             style="fill:none;stroke:#231f20;stroke-width:5.86000013;stroke-linecap:butt;stroke-linejoin:round;stroke-miterlimit:10;stroke-dasharray:none;stroke-opacity:1"
             d="M 0,0 C 0,0 -17.351,-12.121 -10.738,-35.254" /></g><g
           transform="translate(389.1005,344)"
           id="g42"><path
             id="path44"
             style="fill:#19b590;fill-opacity:1;fill-rule:nonzero;stroke:none"
             d="m 0,0 h -1.412 c -10.406,0 -19.339,-6.104 -23.274,-15.057 -3.928,8.948 -12.972,15.291 -23.329,15.291 -7.536,0 -14.362,-3.743 -19.044,-8.995 -4.576,4.434 -10.8,6.761 -17.674,6.761 h -9.886 c -14.039,0 -25.138,-10.48 -25.138,-24.519 v -129.924 c 0,-14.04 11.099,-25.557 25.138,-25.557 h 9.886 c 14.04,0 25.976,11.517 25.976,25.557 v 47.867 c 3,-1.698 7.394,-2.677 11.44,-2.677 13.884,0 25.56,11.257 25.56,25.141 v 1.772 c 4,-6.855 11.498,-10.66 20.345,-10.66 L 0,-95 c 14.041,0 25.243,10.662 25.243,24.702 v 45.191 C 25.243,-11.068 14.041,0 0,0" /></g><path
           id="path46"
           style="fill:#d1d3d4;fill-opacity:1;fill-rule:nonzero;stroke:#231f20;stroke-width:6;stroke-linecap:butt;stroke-linejoin:round;stroke-miterlimit:10;stroke-dasharray:none;stroke-opacity:1"
           d="m 414.343,325 h -144 v 36 h 144 z" /><g
           transform="translate(414.3432,342)"
           id="g48"><path
             id="path50"
             style="fill:none;stroke:#231f20;stroke-width:6;stroke-linecap:butt;stroke-linejoin:round;stroke-miterlimit:10;stroke-dasharray:none;stroke-opacity:1"
             d="m 0,0 h 14 v -48 h -86 v -79" /></g><path
           id="path52"
           style="fill:#a7a9ac;fill-opacity:1;fill-rule:nonzero;stroke:none"
           d="m 356.343,181 h -29 v 60 h 29 z" /><g
           transform="translate(327.3432,225)"
           id="g54"><path
             id="path56"
             style="fill:none;stroke:#231f20;stroke-width:6;stroke-linecap:butt;stroke-linejoin:round;stroke-miterlimit:10;stroke-dasharray:none;stroke-opacity:1"
             d="M 0,0 H 18" /></g><g
           transform="translate(327.3432,212)"
           id="g58"><path
             id="path60"
             style="fill:none;stroke:#231f20;stroke-width:6;stroke-linecap:butt;stroke-linejoin:round;stroke-miterlimit:10;stroke-dasharray:none;stroke-opacity:1"
             d="M 0,0 H 18" /></g><g
           transform="translate(327.3432,197)"
           id="g62"><path
             id="path64"
             style="fill:none;stroke:#231f20;stroke-width:6;stroke-linecap:butt;stroke-linejoin:round;stroke-miterlimit:10;stroke-dasharray:none;stroke-opacity:1"
             d="M 0,0 H 18" /></g><g
           transform="translate(329.3432,348)"
           id="g66"><path
             id="path68"
             style="fill:none;stroke:#231f20;stroke-width:6;stroke-linecap:butt;stroke-linejoin:round;stroke-miterlimit:10;stroke-dasharray:none;stroke-opacity:1"
             d="M 0,0 H 11" /></g><g
           transform="translate(348.3432,348)"
           id="g70"><path
             id="path72"
             style="fill:none;stroke:#231f20;stroke-width:6;stroke-linecap:butt;stroke-linejoin:round;stroke-miterlimit:10;stroke-dasharray:none;stroke-opacity:1"
             d="M 0,0 H 55" /></g><g
           transform="translate(128.3432,382)"
           id="g74"><path
             id="path76"
             style="fill:none;stroke:#231f20;stroke-width:6;stroke-linecap:butt;stroke-linejoin:round;stroke-miterlimit:10;stroke-dasharray:none;stroke-opacity:1"
             d="M 0,0 H 196" /></g><path
           id="path78"
           style="fill:#b7b7b7;fill-opacity:1;fill-rule:nonzero;stroke:none"
           d="m 258.343,16 h -69 v 45 h 69 z" /><g
           transform="translate(383.3432,255.751)"
           id="g80"><path
             id="path82"
             style="fill:#6d6e71;fill-opacity:1;fill-rule:nonzero;stroke:none"
             d="M 0,0 C 0,9.489 -8.473,18.249 -18.38,18.249 H -300.992 C -310.898,18.249 -320,9.489 -320,0 V -143.751 H 0 Z" /></g><g
           transform="translate(63.3432,112)"
           id="g84"><path
             id="path86"
             style="fill:#ffffff;fill-opacity:1;fill-rule:nonzero;stroke:none"
             d="M 0,0 V -35.662 C 0,-45.154 9.102,-51 19.008,-51 H 301.62 c 9.907,0 18.38,5.846 18.38,15.338 V 0 Z" /></g><g
           transform="translate(63.3432,112)"
           id="g88"><path
             id="path90"
             style="fill:none;stroke:#231f20;stroke-width:6;stroke-linecap:butt;stroke-linejoin:round;stroke-miterlimit:10;stroke-dasharray:none;stroke-opacity:1"
             d="M 0,0 V -35.662 C 0,-45.154 9.102,-51 19.008,-51 H 301.62 c 9.907,0 18.38,5.846 18.38,15.338 V 0 Z" /></g><g
           transform="translate(234.7499,87.0479)"
           id="g92"><path
             id="path94"
             style="fill:#bcbec0;fill-opacity:1;fill-rule:nonzero;stroke:none"
             d="m 0,0 c 0,-6.122 -4.964,-11.089 -11.091,-11.089 -6.125,0 -11.087,4.967 -11.087,11.089 0,6.127 4.962,11.09 11.087,11.09 C -4.964,11.09 0,6.127 0,0" /></g><path
           id="path96"
           style="fill:#ffffff;fill-opacity:1;fill-rule:nonzero;stroke:#231f20;stroke-width:6;stroke-linecap:butt;stroke-linejoin:round;stroke-miterlimit:10;stroke-dasharray:none;stroke-opacity:1"
           d="m 270.343,3 h -94 v 13 h 94 z" /><path
           id="path98"
           style="fill:#3b9ada;fill-opacity:1;fill-rule:nonzero;stroke:#231f20;stroke-width:6;stroke-linecap:butt;stroke-linejoin:round;stroke-miterlimit:10;stroke-dasharray:none;stroke-opacity:1"
           d="m 362.343,255 h -278 V 112 h 278 z" /><path
           id="path100"
           style="fill:#3c8fc5;fill-opacity:1;fill-rule:nonzero;stroke:none"
           d="m 345.343,199 h -242 v 36 h 242 z" /><path
           id="path102"
           style="fill:#3c8fc5;fill-opacity:1;fill-rule:nonzero;stroke:none"
           d="m 263.343,159 h -160 v 31 h 160 z" /><path
           id="path104"
           style="fill:#3c8fc5;fill-opacity:1;fill-rule:nonzero;stroke:none"
           d="m 343.343,159 h -64 v 31 h 64 z" /><path
           id="path106"
           style="fill:#3c8fc5;fill-opacity:1;fill-rule:nonzero;stroke:none"
           d="m 343.343,134 h -240 v 15 h 240 z" /><g
           transform="translate(225.1728,281)"
           id="g108"><path
             id="path110"
             style="fill:#d1d3d4;fill-opacity:1;fill-rule:nonzero;stroke:none"
             d="m 0,0 h 12.932 c 0,23 23.469,39.368 23.469,39.368 L 0,81.749 -36.404,39.302 c 0,0 23.47,-16.302 23.47,-39.302 z" /></g><g
           transform="translate(225.3432,363)"
           id="g112"><path
             id="path114"
             style="fill:none;stroke:#231f20;stroke-width:6;stroke-linecap:butt;stroke-linejoin:round;stroke-miterlimit:10;stroke-dasharray:none;stroke-opacity:1"
             d="M 0,0 V -38" /></g><g
           transform="translate(233.5766,315.5254)"
           id="g116"><path
             id="path118"
             style="fill:#939598;fill-opacity:1;fill-rule:nonzero;stroke:none"
             d="m 0,0 c 0,-4.542 -3.683,-8.225 -8.225,-8.225 -4.542,0 -8.224,3.683 -8.224,8.225 0,4.542 3.682,8.225 8.224,8.225 C -3.683,8.225 0,4.542 0,0" /></g><g
           transform="translate(233.5766,315.5254)"
           id="g120"><path
             id="path122"
             style="fill:none;stroke:#231f20;stroke-width:5.86000013;stroke-linecap:butt;stroke-linejoin:round;stroke-miterlimit:10;stroke-dasharray:none;stroke-opacity:1"
             d="m 0,0 c 0,-4.542 -3.683,-8.225 -8.225,-8.225 -4.542,0 -8.224,3.683 -8.224,8.225 0,4.542 3.682,8.225 8.224,8.225 C -3.683,8.225 0,4.542 0,0 Z" /></g><path
           id="path124"
           style="fill:#f1f2f2;fill-opacity:1;fill-rule:nonzero;stroke:#231f20;stroke-width:6;stroke-linecap:butt;stroke-linejoin:round;stroke-miterlimit:10;stroke-dasharray:none;stroke-opacity:1"
           d="m 197.343,112 h 54 v 19 h -54 z" /><g
           transform="translate(251.3432,266)"
           id="g126"><path
             id="path128"
             style="fill:#ffcb31;fill-opacity:1;fill-rule:nonzero;stroke:none"
             d="M 0,0 H -4 V 15 H -50 V 0 h -4 V -135 H 0 Z" /></g><g
           transform="translate(251.3432,266)"
           id="g130"><path
             id="path132"
             style="fill:none;stroke:#231f20;stroke-width:6;stroke-linecap:butt;stroke-linejoin:round;stroke-miterlimit:10;stroke-dasharray:none;stroke-opacity:1"
             d="M 0,0 H -4 V 15 H -50 V 0 h -4 V -135 H 0 Z" /></g><g
           transform="translate(201.3432,266)"
           id="g134"><path
             id="path136"
             style="fill:none;stroke:#231f20;stroke-width:6;stroke-linecap:butt;stroke-linejoin:round;stroke-miterlimit:10;stroke-dasharray:none;stroke-opacity:1"
             d="M 0,0 H 22" /></g><path
           id="path138"
           style="fill:#939598;fill-opacity:1;fill-rule:nonzero;stroke:#231f20;stroke-width:6;stroke-linecap:butt;stroke-linejoin:round;stroke-miterlimit:10;stroke-dasharray:none;stroke-opacity:1"
           d="m 235.343,373 h -19 v 18 h 19 z" /><path
           id="path140"
           style="fill:#939598;fill-opacity:1;fill-rule:nonzero;stroke:#231f20;stroke-width:6;stroke-linecap:butt;stroke-linejoin:round;stroke-miterlimit:10;stroke-dasharray:none;stroke-opacity:1"
           d="m 343.343,375 h -19 v 17 h 19 z" /><path
           id="path142"
           style="fill:#939598;fill-opacity:1;fill-rule:nonzero;stroke:#231f20;stroke-width:6;stroke-linecap:butt;stroke-linejoin:round;stroke-miterlimit:10;stroke-dasharray:none;stroke-opacity:1"
           d="m 128.343,373 h -21 v 18 h 21 z" /><g
           transform="translate(215.3974,381.7363)"
           id="g144"><path
             id="path146"
             style="fill:none;stroke:#231f20;stroke-width:5.86000013;stroke-linecap:butt;stroke-linejoin:round;stroke-miterlimit:10;stroke-dasharray:none;stroke-opacity:1"
             d="M 0,0 C 0,0 -76.843,0.48 -76.843,-76.844" /></g><g
           transform="translate(234.6025,381.7363)"
           id="g148"><path
             id="path150"
             style="fill:none;stroke:#231f20;stroke-width:5.86000013;stroke-linecap:butt;stroke-linejoin:round;stroke-miterlimit:10;stroke-dasharray:none;stroke-opacity:1"
             d="M 0,0 C 0,0 76.843,0.48 76.843,-76.844" /></g><path
           id="path152"
           style="fill:#939598;fill-opacity:1;fill-rule:nonzero;stroke:#231f20;stroke-width:6;stroke-linecap:butt;stroke-linejoin:round;stroke-miterlimit:10;stroke-dasharray:none;stroke-opacity:1"
           d="m 148.343,297 h -19 v 19 h 19 z" /><path
           id="path154"
           style="fill:#939598;fill-opacity:1;fill-rule:nonzero;stroke:#231f20;stroke-width:6;stroke-linecap:butt;stroke-linejoin:round;stroke-miterlimit:10;stroke-dasharray:none;stroke-opacity:1"
           d="m 321.343,297 h -20 v 18 h 20 z" /><path
           id="path156"
           style="fill:#ffffff;fill-opacity:1;fill-rule:nonzero;stroke:#231f20;stroke-width:6;stroke-linecap:butt;stroke-linejoin:round;stroke-miterlimit:10;stroke-dasharray:none;stroke-opacity:1"
           d="m 169.343,136 h -122 v 97 h 122 z" /><path
           id="path158"
           style="fill:#d1d3d4;fill-opacity:1;fill-rule:nonzero;stroke:none"
           d="m 159.343,146 h -101 v 75 h 101 z" /><g
           transform="translate(57.0615,171.9385)"
           id="g160"><path
             id="path162"
             style="fill:none;stroke:#231f20;stroke-width:5.86000013;stroke-linecap:butt;stroke-linejoin:round;stroke-miterlimit:10;stroke-dasharray:none;stroke-opacity:1"
             d="M 0,0 41.938,21.78 82.961,-1.855" /></g><g
           transform="translate(122.4726,180.1934)"
           id="g164"><path
             id="path166"
             style="fill:none;stroke:#231f20;stroke-width:5.86000013;stroke-linecap:butt;stroke-linejoin:round;stroke-miterlimit:10;stroke-dasharray:none;stroke-opacity:1"
             d="M 0,0 15.23,13.525 36.083,0" /></g><g
           transform="translate(126.5815,206.9307)"
           id="g168"><path
             id="path170"
             style="fill:#ffffff;fill-opacity:1;fill-rule:nonzero;stroke:none"
             d="m 0,0 c 0,-5.249 -4.254,-9.503 -9.502,-9.503 -5.249,0 -9.504,4.254 -9.504,9.503 0,5.246 4.255,9.499 9.504,9.499 C -4.254,9.499 0,5.246 0,0" /></g><path
           id="path172"
           style="fill:#f1f2f2;fill-opacity:1;fill-rule:nonzero;stroke:#231f20;stroke-width:6;stroke-linecap:butt;stroke-linejoin:round;stroke-miterlimit:10;stroke-dasharray:none;stroke-opacity:1"
           d="m 409.343,199 h -139 v 34 h 139 z" /><path
           id="path174"
           style="fill:#f1f2f2;fill-opacity:1;fill-rule:nonzero;stroke:none"
           d="m 343.343,139 h -73 v 48 h 73 z" /><path
           id="path176"
           style="fill:#ffcb31;fill-opacity:1;fill-rule:nonzero;stroke:none"
           d="m 409.343,139 h -54 v 48 h 54 z" /><g
           transform="translate(277.3432,178)"
           id="g178"><path
             id="path180"
             style="fill:none;stroke:#231f20;stroke-width:6;stroke-linecap:butt;stroke-linejoin:round;stroke-miterlimit:10;stroke-dasharray:none;stroke-opacity:1"
             d="M 0,0 H 34" /></g><g
           transform="translate(277.3432,164)"
           id="g182"><path
             id="path184"
             style="fill:none;stroke:#231f20;stroke-width:6;stroke-linecap:butt;stroke-linejoin:round;stroke-miterlimit:10;stroke-dasharray:none;stroke-opacity:1"
             d="M 0,0 H 57" /></g><g
           transform="translate(277.3432,149)"
           id="g186"><path
             id="path188"
             style="fill:none;stroke:#231f20;stroke-width:6;stroke-linecap:butt;stroke-linejoin:round;stroke-miterlimit:10;stroke-dasharray:none;stroke-opacity:1"
             d="M 0,0 H 57" /></g><g
           transform="translate(321.3432,212)"
           id="g190"><path
             id="path192"
             style="fill:none;stroke:#231f20;stroke-width:6;stroke-linecap:butt;stroke-linejoin:round;stroke-miterlimit:10;stroke-dasharray:none;stroke-opacity:1"
             d="M 0,0 H 9" /></g><g
           transform="translate(334.3432,212)"
           id="g194"><path
             id="path196"
             style="fill:none;stroke:#231f20;stroke-width:6;stroke-linecap:butt;stroke-linejoin:round;stroke-miterlimit:10;stroke-dasharray:none;stroke-opacity:1"
             d="M 0,0 H 9" /></g><g
           transform="translate(349.3432,212)"
           id="g198"><path
             id="path200"
             style="fill:none;stroke:#231f20;stroke-width:6;stroke-linecap:butt;stroke-linejoin:round;stroke-miterlimit:10;stroke-dasharray:none;stroke-opacity:1"
             d="M 0,0 H 9" /></g><g
           transform="translate(360.9228,181.8408)"
           id="g202"><path
             id="path204"
             style="fill:none;stroke:#231f20;stroke-width:5.86000013;stroke-linecap:butt;stroke-linejoin:round;stroke-miterlimit:10;stroke-dasharray:none;stroke-opacity:1"
             d="M 0,0 41.859,-37.622" /></g><g
           transform="translate(363.04,142.0996)"
           id="g206"><path
             id="path208"
             style="fill:none;stroke:#231f20;stroke-width:5.86000013;stroke-linecap:butt;stroke-linejoin:round;stroke-miterlimit:10;stroke-dasharray:none;stroke-opacity:1"
             d="M 0,0 37.623,41.86" /></g><g
           transform="translate(270.3432,325)"
           id="g210"><path
             id="path212"
             style="fill:none;stroke:#231f20;stroke-width:6;stroke-linecap:butt;stroke-linejoin:round;stroke-miterlimit:10;stroke-dasharray:none;stroke-opacity:1"
             d="M 0,0 V -29" /></g><g
           transform="translate(270.3432,290)"
           id="g214"><path
             id="path216"
             style="fill:none;stroke:#231f20;stroke-width:6;stroke-linecap:butt;stroke-linejoin:round;stroke-miterlimit:10;stroke-dasharray:none;stroke-opacity:1"
             d="M 0,0 V -8" /></g><g
           transform="translate(414.3432,325)"
           id="g218"><path
             id="path220"
             style="fill:none;stroke:#231f20;stroke-width:6;stroke-linecap:butt;stroke-linejoin:round;stroke-miterlimit:10;stroke-dasharray:none;stroke-opacity:1"
             d="M 0,0 V -19" /></g></g></g></g></svg>