<?xml version="1.0" encoding="UTF-8" standalone="no"?>
<svg
   xmlns:dc="http://purl.org/dc/elements/1.1/"
   xmlns:cc="http://creativecommons.org/ns#"
   xmlns:rdf="http://www.w3.org/1999/02/22-rdf-syntax-ns#"
   xmlns:svg="http://www.w3.org/2000/svg"
   xmlns="http://www.w3.org/2000/svg"
   viewBox="0 0 542.66669 425.33334"
   height="425.33334"
   width="542.66669"
   xml:space="preserve"
   id="svg2"
   version="1.1"><metadata
     id="metadata8"><rdf:RDF><cc:Work
         rdf:about=""><dc:format>image/svg+xml</dc:format><dc:type
           rdf:resource="http://purl.org/dc/dcmitype/StillImage" /></cc:Work></rdf:RDF></metadata><defs
     id="defs6"><clipPath
       id="clipPath18"
       clipPathUnits="userSpaceOnUse"><path
         id="path16"
         d="M 0,319 H 407 V 0 H 0 Z" /></clipPath></defs><g
     transform="matrix(1.3333333,0,0,-1.3333333,0,425.33333)"
     id="g10"><g
       id="g12"><g
         clip-path="url(#clipPath18)"
         id="g14"><g
           transform="translate(375,253.0381)"
           id="g20"><path
             id="path22"
             style="fill:#6d6e71;fill-opacity:1;fill-rule:nonzero;stroke:none"
             d="M 0,0 C 0,8.481 -4.961,12.962 -13.447,12.962 H -312.68 C -321.165,12.962 -327,8.481 -327,0 V -218.038 H 0 Z" /></g><g
           transform="translate(19,35)"
           id="g24"><path
             id="path26"
             style="fill:#f1f2f2;fill-opacity:1;fill-rule:nonzero;stroke:none"
             d="M 0,0 V -16.388 C 0,-24.861 10.918,-32 20.687,-32 h 344.499 c 9.773,0 19.814,7.139 19.814,15.612 L 385,0 Z" /></g><g
           transform="translate(19,35)"
           id="g28"><path
             id="path30"
             style="fill:none;stroke:#231f20;stroke-width:6;stroke-linecap:butt;stroke-linejoin:round;stroke-miterlimit:10;stroke-dasharray:none;stroke-opacity:1"
             d="M 0,0 V -16.388 C 0,-24.861 10.918,-32 20.687,-32 h 344.499 c 9.773,0 19.814,7.139 19.814,15.612 L 385,0 Z" /></g><path
           id="path32"
           style="fill:#ffcb31;fill-opacity:1;fill-rule:nonzero;stroke:#231f20;stroke-width:6;stroke-linecap:butt;stroke-linejoin:round;stroke-miterlimit:10;stroke-dasharray:none;stroke-opacity:1"
           d="M 355,56 H 69 v 193 h 286 z" /><g
           transform="translate(194,17)"
           id="g34"><path
             id="path36"
             style="fill:none;stroke:#231f20;stroke-width:6;stroke-linecap:butt;stroke-linejoin:round;stroke-miterlimit:10;stroke-dasharray:none;stroke-opacity:1"
             d="M 0,0 H 36" /></g><g
           transform="translate(87,87.3223)"
           id="g38"><path
             id="path40"
             style="fill:#d1d3d4;fill-opacity:1;fill-rule:nonzero;stroke:none"
             d="m 0,0 v 16.597 c 2,0.956 5.852,2.208 8.697,3.725 L 20.291,8.584 c 1.113,-1.114 2.854,-1.114 3.961,0 l 16.78,16.823 c 1.112,1.11 1.09,2.915 -0.024,4.023 l -11.743,10.5 c 1.518,2.845 2.761,5.748 3.715,7.748 h 16.602 c 1.572,0 1.418,3.758 1.418,5.338 v 23.778 c 0,1.575 0.154,3.884 -1.418,3.884 H 32.98 c -0.954,3 -2.204,5.627 -3.724,8.47 l 11.737,11.484 c 1.113,1.111 1.113,2.778 0,3.9 L 24.17,121.278 c -1.108,1.122 -2.909,1.09 -4.021,-0.031 L 8.697,109.496 C 5.852,111.013 2,112.246 0,113.216 v 16.595 c 0,1.569 -1.851,3.867 -3.428,3.867 h -23.788 c -1.568,0 -3.784,-2.298 -3.784,-3.867 v -16.595 c -3,-0.97 -5.677,-2.22 -8.507,-3.737 l -11.512,11.733 c -1.109,1.122 -2.801,1.122 -3.914,0 l -16.768,-16.81 c -1.11,-1.119 -1.079,-2.919 0.034,-4.031 l 11.761,-11.223 c -1.518,-2.843 -2.764,-5.47 -3.719,-8.47 H -80.217 C -81.793,80.678 -84,78.369 -84,76.794 V 53.016 c 0,-1.58 2.207,-5.338 3.783,-5.338 h 16.592 c 0.955,-2 2.215,-4.903 3.737,-7.748 L -71.641,28.805 c -1.111,-1.104 -1.111,-2.598 0,-3.711 L -54.813,8.429 c 1.11,-1.116 2.921,-1.04 4.025,0.078 l 11.281,11.777 C -36.677,18.765 -34,17.553 -31,16.597 V 0 c 0,-1.575 2.216,-1.322 3.784,-1.322 H -3.428 C -1.851,-1.322 0,-1.575 0,0" /></g><g
           transform="translate(87,87.3223)"
           id="g42"><path
             id="path44"
             style="fill:none;stroke:#231f20;stroke-width:6;stroke-linecap:butt;stroke-linejoin:round;stroke-miterlimit:10;stroke-dasharray:none;stroke-opacity:1"
             d="m 0,0 v 16.597 c 2,0.956 5.852,2.208 8.697,3.725 L 20.291,8.584 c 1.113,-1.114 2.854,-1.114 3.961,0 l 16.78,16.823 c 1.112,1.11 1.09,2.915 -0.024,4.023 l -11.743,10.5 c 1.518,2.845 2.761,5.748 3.715,7.748 h 16.602 c 1.572,0 1.418,3.758 1.418,5.338 v 23.778 c 0,1.575 0.154,3.884 -1.418,3.884 H 32.98 c -0.954,3 -2.204,5.627 -3.724,8.47 l 11.737,11.484 c 1.113,1.111 1.113,2.778 0,3.9 L 24.17,121.278 c -1.108,1.122 -2.909,1.09 -4.021,-0.031 L 8.697,109.496 C 5.852,111.013 2,112.246 0,113.216 v 16.595 c 0,1.569 -1.851,3.867 -3.428,3.867 h -23.788 c -1.568,0 -3.784,-2.298 -3.784,-3.867 v -16.595 c -3,-0.97 -5.677,-2.22 -8.507,-3.737 l -11.512,11.733 c -1.109,1.122 -2.801,1.122 -3.914,0 l -16.768,-16.81 c -1.11,-1.119 -1.079,-2.919 0.034,-4.031 l 11.761,-11.223 c -1.518,-2.843 -2.764,-5.47 -3.719,-8.47 H -80.217 C -81.793,80.678 -84,78.369 -84,76.794 V 53.016 c 0,-1.58 2.207,-5.338 3.783,-5.338 h 16.592 c 0.955,-2 2.215,-4.903 3.737,-7.748 L -71.641,28.805 c -1.111,-1.104 -1.111,-2.598 0,-3.711 L -54.813,8.429 c 1.11,-1.116 2.921,-1.04 4.025,0.078 l 11.281,11.777 C -36.677,18.765 -34,17.553 -31,16.597 V 0 c 0,-1.575 2.216,-1.322 3.784,-1.322 H -3.428 C -1.851,-1.322 0,-1.575 0,0 Z" /></g><g
           transform="translate(71.0669,130.0967)"
           id="g46"><path
             id="path48"
             style="fill:#f1f2f2;fill-opacity:1;fill-rule:nonzero;stroke:none"
             d="m 0,0 c -11.781,0 -21.335,9.56 -21.335,21.343 0,11.784 9.554,21.341 21.335,21.341 11.792,0 21.345,-9.557 21.345,-21.341 C 21.345,9.56 11.792,0 0,0" /></g><path
           id="path50"
           style="fill:#ffcb31;fill-opacity:1;fill-rule:nonzero;stroke:none"
           d="M 327,319 H 98 v -26 h 229 z" /><path
           id="path52"
           style="fill:#f1f2f2;fill-opacity:1;fill-rule:nonzero;stroke:#231f20;stroke-width:6;stroke-linecap:butt;stroke-linejoin:round;stroke-miterlimit:10;stroke-dasharray:none;stroke-opacity:1"
           d="M 327,56 H 98 v 237 h 229 z" /><g
           transform="translate(110,307)"
           id="g54"><path
             id="path56"
             style="fill:none;stroke:#231f20;stroke-width:6;stroke-linecap:butt;stroke-linejoin:round;stroke-miterlimit:10;stroke-dasharray:none;stroke-opacity:1"
             d="M 0,0 H 15" /></g><g
           transform="translate(133,307)"
           id="g58"><path
             id="path60"
             style="fill:none;stroke:#231f20;stroke-width:6;stroke-linecap:butt;stroke-linejoin:round;stroke-miterlimit:10;stroke-dasharray:none;stroke-opacity:1"
             d="M 0,0 H 17" /></g><g
           transform="translate(160,307)"
           id="g62"><path
             id="path64"
             style="fill:none;stroke:#231f20;stroke-width:6;stroke-linecap:butt;stroke-linejoin:round;stroke-miterlimit:10;stroke-dasharray:none;stroke-opacity:1"
             d="M 0,0 H 13" /></g><path
           id="path66"
           style="fill:#e6e7e8;fill-opacity:1;fill-rule:nonzero;stroke:none"
           d="m 142,72 h -28 v 206 h 28 z" /><path
           id="path68"
           style="fill:#e6e7e8;fill-opacity:1;fill-rule:nonzero;stroke:none"
           d="M 309,72 H 163 v 206 h 146 z" /><g
           transform="translate(151,278)"
           id="g70"><path
             id="path72"
             style="fill:none;stroke:#231f20;stroke-width:6;stroke-linecap:butt;stroke-linejoin:round;stroke-miterlimit:10;stroke-dasharray:none;stroke-opacity:1"
             d="M 0,0 V -205" /></g><g
           transform="translate(122,264)"
           id="g74"><path
             id="path76"
             style="fill:none;stroke:#231f20;stroke-width:6;stroke-linecap:butt;stroke-linejoin:round;stroke-miterlimit:10;stroke-dasharray:none;stroke-opacity:1"
             d="M 0,0 H 11" /></g><g
           transform="translate(122,243)"
           id="g78"><path
             id="path80"
             style="fill:none;stroke:#231f20;stroke-width:6;stroke-linecap:butt;stroke-linejoin:round;stroke-miterlimit:10;stroke-dasharray:none;stroke-opacity:1"
             d="M 0,0 H 11" /></g><g
           transform="translate(122,224)"
           id="g82"><path
             id="path84"
             style="fill:none;stroke:#231f20;stroke-width:6;stroke-linecap:butt;stroke-linejoin:round;stroke-miterlimit:10;stroke-dasharray:none;stroke-opacity:1"
             d="M 0,0 H 11" /></g><g
           transform="translate(122,203)"
           id="g86"><path
             id="path88"
             style="fill:none;stroke:#231f20;stroke-width:6;stroke-linecap:butt;stroke-linejoin:round;stroke-miterlimit:10;stroke-dasharray:none;stroke-opacity:1"
             d="M 0,0 H 11" /></g><g
           transform="translate(122,184)"
           id="g90"><path
             id="path92"
             style="fill:none;stroke:#231f20;stroke-width:6;stroke-linecap:butt;stroke-linejoin:round;stroke-miterlimit:10;stroke-dasharray:none;stroke-opacity:1"
             d="M 0,0 H 11" /></g><g
           transform="translate(122,164)"
           id="g94"><path
             id="path96"
             style="fill:none;stroke:#231f20;stroke-width:6;stroke-linecap:butt;stroke-linejoin:round;stroke-miterlimit:10;stroke-dasharray:none;stroke-opacity:1"
             d="M 0,0 H 11" /></g><g
           transform="translate(122,145)"
           id="g98"><path
             id="path100"
             style="fill:none;stroke:#231f20;stroke-width:6;stroke-linecap:butt;stroke-linejoin:round;stroke-miterlimit:10;stroke-dasharray:none;stroke-opacity:1"
             d="M 0,0 H 11" /></g><g
           transform="translate(122,124)"
           id="g102"><path
             id="path104"
             style="fill:none;stroke:#231f20;stroke-width:6;stroke-linecap:butt;stroke-linejoin:round;stroke-miterlimit:10;stroke-dasharray:none;stroke-opacity:1"
             d="M 0,0 H 11" /></g><g
           transform="translate(122,105)"
           id="g106"><path
             id="path108"
             style="fill:none;stroke:#231f20;stroke-width:6;stroke-linecap:butt;stroke-linejoin:round;stroke-miterlimit:10;stroke-dasharray:none;stroke-opacity:1"
             d="M 0,0 H 11" /></g><g
           transform="translate(122,85)"
           id="g110"><path
             id="path112"
             style="fill:none;stroke:#231f20;stroke-width:6;stroke-linecap:butt;stroke-linejoin:round;stroke-miterlimit:10;stroke-dasharray:none;stroke-opacity:1"
             d="M 0,0 H 11" /></g><path
           id="path114"
           style="fill:#bcbec0;fill-opacity:1;fill-rule:nonzero;stroke:none"
           d="M 299,259 H 172 v 7 h 127 z" /><path
           id="path116"
           style="fill:#bcbec0;fill-opacity:1;fill-rule:nonzero;stroke:none"
           d="m 215,243 h -43 v 9 h 43 z" /><path
           id="path118"
           style="fill:#bcbec0;fill-opacity:1;fill-rule:nonzero;stroke:none"
           d="m 239,243 h -15 v 9 h 15 z" /><path
           id="path120"
           style="fill:#bcbec0;fill-opacity:1;fill-rule:nonzero;stroke:none"
           d="m 262,243 h -14 v 9 h 14 z" /><path
           id="path122"
           style="fill:#bcbec0;fill-opacity:1;fill-rule:nonzero;stroke:none"
           d="m 271,196 h -17 v 7 h 17 z" /><path
           id="path124"
           style="fill:#bcbec0;fill-opacity:1;fill-rule:nonzero;stroke:none"
           d="m 299,196 h -18 v 7 h 18 z" /><path
           id="path126"
           style="fill:#bcbec0;fill-opacity:1;fill-rule:nonzero;stroke:none"
           d="M 299,227 H 172 v 9 h 127 z" /><path
           id="path128"
           style="fill:#bcbec0;fill-opacity:1;fill-rule:nonzero;stroke:none"
           d="M 299,211 H 189 v 9 h 110 z" /><path
           id="path130"
           style="fill:#bcbec0;fill-opacity:1;fill-rule:nonzero;stroke:none"
           d="m 243,196 h -71 v 7 h 71 z" /><path
           id="path132"
           style="fill:#bcbec0;fill-opacity:1;fill-rule:nonzero;stroke:none"
           d="m 172,119 h 127 v -8 H 172 Z" /><path
           id="path134"
           style="fill:#bcbec0;fill-opacity:1;fill-rule:nonzero;stroke:none"
           d="m 172,104 h 90 v -9 h -90 z" /><path
           id="path136"
           style="fill:#bcbec0;fill-opacity:1;fill-rule:nonzero;stroke:none"
           d="m 223,88 h 76 v -9 h -76 z" /><path
           id="path138"
           style="fill:#bcbec0;fill-opacity:1;fill-rule:nonzero;stroke:none"
           d="m 256,135 h 43 v -8 h -43 z" /><path
           id="path140"
           style="fill:#bcbec0;fill-opacity:1;fill-rule:nonzero;stroke:none"
           d="m 233,135 h 13 v -8 h -13 z" /><path
           id="path142"
           style="fill:#bcbec0;fill-opacity:1;fill-rule:nonzero;stroke:none"
           d="m 172,88 h 42 v -9 h -42 z" /><path
           id="path144"
           style="fill:#bcbec0;fill-opacity:1;fill-rule:nonzero;stroke:none"
           d="m 208,135 h 15 v -8 h -15 z" /><path
           id="path146"
           style="fill:#bcbec0;fill-opacity:1;fill-rule:nonzero;stroke:none"
           d="m 201,183 h 17 v -9 h -17 z" /><path
           id="path148"
           style="fill:#bcbec0;fill-opacity:1;fill-rule:nonzero;stroke:none"
           d="m 172,183 h 17 v -9 h -17 z" /><path
           id="path150"
           style="fill:#bcbec0;fill-opacity:1;fill-rule:nonzero;stroke:none"
           d="m 172,151 h 127 v -8 H 172 Z" /><path
           id="path152"
           style="fill:#bcbec0;fill-opacity:1;fill-rule:nonzero;stroke:none"
           d="m 172,167 h 109 v -7 H 172 Z" /><path
           id="path154"
           style="fill:#bcbec0;fill-opacity:1;fill-rule:nonzero;stroke:none"
           d="m 227,183 h 72 v -9 h -72 z" /><path
           id="path156"
           style="fill:#bcbec0;fill-opacity:1;fill-rule:nonzero;stroke:none"
           d="m 299,95 h -26 v 9 h 26 z" /><g
           transform="translate(346.0874,303)"
           id="g158"><path
             id="path160"
             style="fill:#ffffff;fill-opacity:1;fill-rule:nonzero;stroke:none"
             d="m 0,0 h -31.024 c -2.857,0 -4.063,-2.602 -4.063,-5.462 v -31.033 c 0,-2.852 1.206,-5.505 4.063,-5.505 h 2.937 v -113 h 23 V -42 H 0 c 2.86,0 5.913,2.653 5.913,5.505 V -5.462 C 5.913,-2.602 2.86,0 0,0" /></g><g
           transform="translate(346.0874,303)"
           id="g162"><path
             id="path164"
             style="fill:none;stroke:#231f20;stroke-width:6;stroke-linecap:butt;stroke-linejoin:round;stroke-miterlimit:10;stroke-dasharray:none;stroke-opacity:1"
             d="m 0,0 h -31.024 c -2.857,0 -4.063,-2.602 -4.063,-5.462 v -31.033 c 0,-2.852 1.206,-5.505 4.063,-5.505 h 2.937 v -113 h 23 V -42 H 0 c 2.86,0 5.913,2.653 5.913,5.505 V -5.462 C 5.913,-2.602 2.86,0 0,0 Z" /></g><path
           id="path166"
           style="fill:#bcbec0;fill-opacity:1;fill-rule:nonzero;stroke:none"
           d="M 352,127 H 311 V 58 h 41 z" /><path
           id="path168"
           style="fill:#d1d3d4;fill-opacity:1;fill-rule:nonzero;stroke:#231f20;stroke-width:6;stroke-linecap:butt;stroke-linejoin:round;stroke-miterlimit:10;stroke-dasharray:none;stroke-opacity:1"
           d="m 363,127 h -65 v 21 h 65 z" /><g
           transform="translate(328,107)"
           id="g170"><path
             id="path172"
             style="fill:none;stroke:#231f20;stroke-width:6;stroke-linecap:butt;stroke-linejoin:round;stroke-miterlimit:10;stroke-dasharray:none;stroke-opacity:1"
             d="M 0,0 H -17" /></g><g
           transform="translate(328,88)"
           id="g174"><path
             id="path176"
             style="fill:none;stroke:#231f20;stroke-width:6;stroke-linecap:butt;stroke-linejoin:round;stroke-miterlimit:10;stroke-dasharray:none;stroke-opacity:1"
             d="M 0,0 H -17" /></g><g
           transform="translate(236.6655,235.0322)"
           id="g178"><path
             id="path180"
             style="fill:none;stroke:#231f20;stroke-width:5.86000013;stroke-linecap:butt;stroke-linejoin:round;stroke-miterlimit:10;stroke-dasharray:none;stroke-opacity:1"
             d="M 0,0 -11.702,-11.701 0,-23.4" /></g><g
           transform="translate(269.3931,211.6318)"
           id="g182"><path
             id="path184"
             style="fill:none;stroke:#231f20;stroke-width:5.86000013;stroke-linecap:butt;stroke-linejoin:round;stroke-miterlimit:10;stroke-dasharray:none;stroke-opacity:1"
             d="M 0,0 11.703,11.699 0,23.4" /></g><g
           transform="translate(244.8931,208.5205)"
           id="g186"><path
             id="path188"
             style="fill:none;stroke:#231f20;stroke-width:5.86000013;stroke-linecap:butt;stroke-linejoin:round;stroke-miterlimit:10;stroke-dasharray:none;stroke-opacity:1"
             d="M 0,0 14.259,29.987" /></g><g
           transform="translate(196.894,142.7627)"
           id="g190"><path
             id="path192"
             style="fill:none;stroke:#231f20;stroke-width:5.86000013;stroke-linecap:butt;stroke-linejoin:round;stroke-miterlimit:10;stroke-dasharray:none;stroke-opacity:1"
             d="M 0,0 -11.703,-11.701 0,-23.401" /></g><g
           transform="translate(229.6211,119.3613)"
           id="g194"><path
             id="path196"
             style="fill:none;stroke:#231f20;stroke-width:5.86000013;stroke-linecap:butt;stroke-linejoin:round;stroke-miterlimit:10;stroke-dasharray:none;stroke-opacity:1"
             d="M 0,0 11.703,11.7 0,23.401" /></g><g
           transform="translate(205.1216,116.25)"
           id="g198"><path
             id="path200"
             style="fill:none;stroke:#231f20;stroke-width:5.86000013;stroke-linecap:butt;stroke-linejoin:round;stroke-miterlimit:10;stroke-dasharray:none;stroke-opacity:1"
             d="M 0,0 14.259,29.987" /></g></g></g></g></svg>