<?xml version="1.0" encoding="UTF-8"?>
<svg xmlns="http://www.w3.org/2000/svg" xmlns:xlink="http://www.w3.org/1999/xlink" width="40.7pt" height="33.08pt" viewBox="0 0 40.7 33.08" version="1.1">
<defs>
<clipPath id="clip1">
  <path d="M 0 0 L 40.699219 0 L 40.699219 33.078125 L 0 33.078125 Z M 0 0 "/>
</clipPath>
</defs>
<g id="surface1">
<g clip-path="url(#clip1)" clip-rule="nonzero">
<path style=" stroke:none;fill-rule:nonzero;fill:rgb(0%,0%,0%);fill-opacity:1;" d="M 0 29.328125 C 3.695313 31.695313 8.082031 33.078125 12.796875 33.078125 C 28.300781 33.078125 37.058594 19.984375 36.53125 8.242188 C 38.164063 7.066406 39.578125 5.59375 40.699219 3.917969 C 39.199219 4.582031 37.589844 5.03125 35.902344 5.234375 C 37.625 4.203125 38.949219 2.566406 39.574219 0.613281 C 37.960938 1.570313 36.171875 2.265625 34.269531 2.640625 C 32.75 1.019531 30.578125 0.00390625 28.175781 0.00390625 C 22.789063 0.00390625 18.828125 5.035156 20.042969 10.257813 C 13.105469 9.910156 6.949219 6.585938 2.832031 1.53125 C 0.644531 5.285156 1.699219 10.195313 5.417969 12.679688 C 4.050781 12.636719 2.761719 12.261719 1.636719 11.636719 C 1.542969 15.503906 4.316406 19.121094 8.332031 19.929688 C 7.15625 20.25 5.871094 20.320313 4.5625 20.070313 C 5.625 23.390625 8.707031 25.804688 12.359375 25.871094 C 8.851563 28.621094 4.429688 29.851563 0 29.328125 "/>
</g>
</g>
</svg>
