<?xml version="1.0" encoding="UTF-8" standalone="no"?>
<svg
   xmlns:dc="http://purl.org/dc/elements/1.1/"
   xmlns:cc="http://creativecommons.org/ns#"
   xmlns:rdf="http://www.w3.org/1999/02/22-rdf-syntax-ns#"
   xmlns:svg="http://www.w3.org/2000/svg"
   xmlns="http://www.w3.org/2000/svg"
   viewBox="0 0 610.17865 458.96799"
   height="458.96799"
   width="610.17865"
   xml:space="preserve"
   id="svg2"
   version="1.1"><metadata
     id="metadata8"><rdf:RDF><cc:Work
         rdf:about=""><dc:format>image/svg+xml</dc:format><dc:type
           rdf:resource="http://purl.org/dc/dcmitype/StillImage" /></cc:Work></rdf:RDF></metadata><defs
     id="defs6"><clipPath
       id="clipPath18"
       clipPathUnits="userSpaceOnUse"><path
         id="path16"
         d="M 0,344.226 H 457.634 V 0 H 0 Z" /></clipPath></defs><g
     transform="matrix(1.3333333,0,0,-1.3333333,0,458.968)"
     id="g10"><g
       id="g12"><g
         clip-path="url(#clipPath18)"
         id="g14"><g
           transform="translate(454.7041,145.3857)"
           id="g20"><path
             id="path22"
             style="fill:none;stroke:#231f20;stroke-width:5.86000013;stroke-linecap:butt;stroke-linejoin:round;stroke-miterlimit:4;stroke-dasharray:10.26, 10.26;stroke-dashoffset:0;stroke-opacity:1"
             d="m 0,0 c 0,-32.475 -26.325,-58.8 -58.799,-58.8 -32.473,0 -58.798,26.325 -58.798,58.8 0,32.473 26.325,58.798 58.798,58.798 C -26.325,58.798 0,32.473 0,0 Z" /></g><g
           transform="translate(134.2622,282.498)"
           id="g24"><path
             id="path26"
             style="fill:none;stroke:#231f20;stroke-width:5.86000013;stroke-linecap:butt;stroke-linejoin:round;stroke-miterlimit:4;stroke-dasharray:10.26, 10.26;stroke-dashoffset:0;stroke-opacity:1"
             d="m 0,0 c 0,-32.474 -26.325,-58.799 -58.799,-58.799 -32.472,0 -58.799,26.325 -58.799,58.799 0,32.473 26.327,58.798 58.799,58.798 C -26.325,58.798 0,32.473 0,0 Z" /></g><path
           id="path28"
           style="fill:#b7b7b7;fill-opacity:1;fill-rule:nonzero;stroke:none"
           d="m 264,16 h -75 v 50 h 75 z" /><g
           transform="translate(397,276.2607)"
           id="g30"><path
             id="path32"
             style="fill:#6d6e71;fill-opacity:1;fill-rule:nonzero;stroke:none"
             d="M 0,0 C 0,10.237 -8.397,19.739 -19.084,19.739 H -323.966 C -334.653,19.739 -344,10.237 -344,0 V -154.261 H 0 Z" /></g><g
           transform="translate(53,122)"
           id="g34"><path
             id="path36"
             style="fill:#ffffff;fill-opacity:1;fill-rule:nonzero;stroke:none"
             d="M 0,0 V -39.291 C 0,-49.531 9.347,-56 20.034,-56 H 324.916 C 335.603,-56 344,-49.531 344,-39.291 V 0 Z" /></g><g
           transform="translate(53,122)"
           id="g38"><path
             id="path40"
             style="fill:none;stroke:#231f20;stroke-width:6;stroke-linecap:butt;stroke-linejoin:round;stroke-miterlimit:10;stroke-dasharray:none;stroke-opacity:1"
             d="M 0,0 V -39.291 C 0,-49.531 9.347,-56 20.034,-56 H 324.916 C 335.603,-56 344,-49.531 344,-39.291 V 0 Z" /></g><g
           transform="translate(237.4409,94.2627)"
           id="g42"><path
             id="path44"
             style="fill:#bcbec0;fill-opacity:1;fill-rule:nonzero;stroke:none"
             d="m 0,0 c 0,-6.604 -5.355,-11.963 -11.963,-11.963 -6.61,0 -11.963,5.359 -11.963,11.963 0,6.61 5.353,11.964 11.963,11.964 C -5.355,11.964 0,6.61 0,0" /></g><path
           id="path46"
           style="fill:#ffffff;fill-opacity:1;fill-rule:nonzero;stroke:#231f20;stroke-width:6;stroke-linecap:butt;stroke-linejoin:round;stroke-miterlimit:10;stroke-dasharray:none;stroke-opacity:1"
           d="M 276,3 H 175 v 13 h 101 z" /><path
           id="path48"
           style="fill:#3b9ada;fill-opacity:1;fill-rule:nonzero;stroke:#231f20;stroke-width:6;stroke-linecap:butt;stroke-linejoin:round;stroke-miterlimit:10;stroke-dasharray:none;stroke-opacity:1"
           d="M 375,274 H 75 V 122 h 300 z" /><path
           id="path50"
           style="fill:#3c8fc5;fill-opacity:1;fill-rule:nonzero;stroke:none"
           d="M 356,215 H 97 v 40 h 259 z" /><path
           id="path52"
           style="fill:#3c8fc5;fill-opacity:1;fill-rule:nonzero;stroke:none"
           d="M 268,172 H 97 v 33 h 171 z" /><path
           id="path54"
           style="fill:#3c8fc5;fill-opacity:1;fill-rule:nonzero;stroke:none"
           d="m 355,172 h -71 v 33 h 71 z" /><path
           id="path56"
           style="fill:#3c8fc5;fill-opacity:1;fill-rule:nonzero;stroke:none"
           d="M 355,145 H 97 v 16 h 258 z" /><g
           transform="translate(236,173.4248)"
           id="g58"><path
             id="path60"
             style="fill:#ffffff;fill-opacity:1;fill-rule:nonzero;stroke:none"
             d="m 0,0 v 30.044 c 0,2.768 -1.456,3.531 -4.225,3.531 h -30.053 c -2.76,0 -6.722,-0.763 -6.722,-3.531 v -4.469 h -110 v -22 H -41 V 0 c 0,-2.77 3.962,-6.425 6.722,-6.425 H -4.225 C -1.456,-6.425 0,-2.77 0,0" /></g><g
           transform="translate(236,173.4248)"
           id="g62"><path
             id="path64"
             style="fill:none;stroke:#231f20;stroke-width:6;stroke-linecap:butt;stroke-linejoin:round;stroke-miterlimit:10;stroke-dasharray:none;stroke-opacity:1"
             d="m 0,0 v 30.044 c 0,2.768 -1.456,3.531 -4.225,3.531 h -30.053 c -2.76,0 -6.722,-0.763 -6.722,-3.531 v -4.469 h -110 v -22 H -41 V 0 c 0,-2.77 3.962,-6.425 6.722,-6.425 H -4.225 C -1.456,-6.425 0,-2.77 0,0 Z" /></g><path
           id="path66"
           style="fill:#3b9ada;fill-opacity:1;fill-rule:nonzero;stroke:none"
           d="m 0,167 h 66 v 40 H 0 Z" /><path
           id="path68"
           style="fill:#d1d3d4;fill-opacity:1;fill-rule:nonzero;stroke:#231f20;stroke-width:6;stroke-linecap:butt;stroke-linejoin:round;stroke-miterlimit:10;stroke-dasharray:none;stroke-opacity:1"
           d="M 66,220 H 85 V 157 H 66 Z" /><g
           transform="translate(46,191)"
           id="g70"><path
             id="path72"
             style="fill:none;stroke:#231f20;stroke-width:6;stroke-linecap:butt;stroke-linejoin:round;stroke-miterlimit:10;stroke-dasharray:none;stroke-opacity:1"
             d="M 0,0 V 16" /></g><g
           transform="translate(28,191)"
           id="g74"><path
             id="path76"
             style="fill:none;stroke:#231f20;stroke-width:6;stroke-linecap:butt;stroke-linejoin:round;stroke-miterlimit:10;stroke-dasharray:none;stroke-opacity:1"
             d="M 0,0 V 16" /></g><path
           id="path78"
           style="fill:#ffffff;fill-opacity:1;fill-rule:nonzero;stroke:none"
           d="M 386,227 H 97 v 54 h 289 z" /><g
           transform="translate(217,239)"
           id="g80"><path
             id="path82"
             style="fill:none;stroke:#231f20;stroke-width:6;stroke-linecap:butt;stroke-linejoin:round;stroke-miterlimit:10;stroke-dasharray:none;stroke-opacity:1"
             d="M 0,0 H 9" /></g><g
           transform="translate(233,239)"
           id="g84"><path
             id="path86"
             style="fill:none;stroke:#231f20;stroke-width:6;stroke-linecap:butt;stroke-linejoin:round;stroke-miterlimit:10;stroke-dasharray:none;stroke-opacity:1"
             d="M 0,0 H 9" /></g><g
           transform="translate(251,239)"
           id="g88"><path
             id="path90"
             style="fill:none;stroke:#231f20;stroke-width:6;stroke-linecap:butt;stroke-linejoin:round;stroke-miterlimit:10;stroke-dasharray:none;stroke-opacity:1"
             d="M 0,0 H 10" /></g><g
           transform="translate(238,281)"
           id="g92"><path
             id="path94"
             style="fill:none;stroke:#231f20;stroke-width:6;stroke-linecap:butt;stroke-linejoin:round;stroke-miterlimit:10;stroke-dasharray:none;stroke-opacity:1"
             d="M 0,0 V 33 H 98 V 15" /></g><g
           transform="translate(87,240.585)"
           id="g96"><path
             id="path98"
             style="fill:#d1d3d4;fill-opacity:1;fill-rule:nonzero;stroke:none"
             d="M 0,0 V 10.616 C 1,11.228 4.408,12.029 6.229,13 l 7.747,-7.509 c 0.712,-0.714 1.992,-0.714 2.699,0 l 10.814,10.758 c 0.713,0.712 0.742,1.866 0.028,2.575 l -7.49,6.675 c 0.973,1.821 1.787,3.916 2.396,4.916 h 10.619 c 1.005,0 1.958,2.485 1.958,3.494 v 15.21 c 0,1.006 -0.953,3.296 -1.958,3.296 H 22.423 c -0.609,2 -1.41,3.192 -2.38,5.011 l 7.508,7.142 c 0.712,0.711 0.712,1.678 0,2.394 L 16.788,77.623 c -0.709,0.716 -1.858,0.669 -2.572,-0.047 L 6.229,70.048 C 4.408,71.017 1,71.795 0,72.414 v 10.615 c 0,1.003 0.144,3.386 -0.864,3.386 H -16.079 C -17.082,86.415 -18,84.032 -18,83.029 V 72.414 c -1,-0.619 -3.88,-1.42 -5.691,-2.388 l -7.487,7.504 c -0.708,0.716 -1.856,0.716 -2.565,0 L -44.5,66.777 c -0.71,-0.715 -0.708,-1.866 0.003,-2.578 l 7.518,-6.773 c -0.972,-1.819 -1.776,-3.011 -2.388,-5.011 h -10.612 c -1.009,0 -2.021,-2.29 -2.021,-3.296 v -15.21 c 0,-1.009 1.012,-3.494 2.021,-3.494 h 10.612 c 0.612,-1 1.418,-3.095 2.39,-4.916 l -7.515,-7.093 c -0.714,-0.707 -0.714,-1.653 0,-2.366 L -33.73,5.386 c 0.709,-0.715 1.868,-0.662 2.575,0.054 l 7.464,7.535 C -21.88,12.002 -19,11.228 -18,10.616 V 0 c 0,-1.006 0.918,-1.585 1.921,-1.585 H -0.864 C 0.144,-1.585 0,-1.006 0,0" /></g><g
           transform="translate(87,240.585)"
           id="g100"><path
             id="path102"
             style="fill:none;stroke:#231f20;stroke-width:6;stroke-linecap:butt;stroke-linejoin:round;stroke-miterlimit:10;stroke-dasharray:none;stroke-opacity:1"
             d="M 0,0 V 10.616 C 1,11.228 4.408,12.029 6.229,13 l 7.747,-7.509 c 0.712,-0.714 1.992,-0.714 2.699,0 l 10.814,10.758 c 0.713,0.712 0.742,1.866 0.028,2.575 l -7.49,6.675 c 0.973,1.821 1.787,3.916 2.396,4.916 h 10.619 c 1.005,0 1.958,2.485 1.958,3.494 v 15.21 c 0,1.006 -0.953,3.296 -1.958,3.296 H 22.423 c -0.609,2 -1.41,3.192 -2.38,5.011 l 7.508,7.142 c 0.712,0.711 0.712,1.678 0,2.394 L 16.788,77.623 c -0.709,0.716 -1.858,0.669 -2.572,-0.047 L 6.229,70.048 C 4.408,71.017 1,71.795 0,72.414 v 10.615 c 0,1.003 0.144,3.386 -0.864,3.386 H -16.079 C -17.082,86.415 -18,84.032 -18,83.029 V 72.414 c -1,-0.619 -3.88,-1.42 -5.691,-2.388 l -7.487,7.504 c -0.708,0.716 -1.856,0.716 -2.565,0 L -44.5,66.777 c -0.71,-0.715 -0.708,-1.866 0.003,-2.578 l 7.518,-6.773 c -0.972,-1.819 -1.776,-3.011 -2.388,-5.011 h -10.612 c -1.009,0 -2.021,-2.29 -2.021,-3.296 v -15.21 c 0,-1.009 1.012,-3.494 2.021,-3.494 h 10.612 c 0.612,-1 1.418,-3.095 2.39,-4.916 l -7.515,-7.093 c -0.714,-0.707 -0.714,-1.653 0,-2.366 L -33.73,5.386 c 0.709,-0.715 1.868,-0.662 2.575,0.054 l 7.464,7.535 C -21.88,12.002 -19,11.228 -18,10.616 V 0 c 0,-1.006 0.918,-1.585 1.921,-1.585 H -0.864 C 0.144,-1.585 0,-1.006 0,0 Z" /></g><g
           transform="translate(78.1382,267.9448)"
           id="g104"><path
             id="path106"
             style="fill:#f1f2f2;fill-opacity:1;fill-rule:nonzero;stroke:none"
             d="m 0,0 c -7.537,0 -13.646,6.115 -13.646,13.65 0,7.538 6.109,13.651 13.646,13.651 7.541,0 13.651,-6.113 13.651,-13.651 C 13.651,6.115 7.541,0 0,0" /></g><g
           transform="translate(406,105.0137)"
           id="g108"><path
             id="path110"
             style="fill:#d1d3d4;fill-opacity:1;fill-rule:nonzero;stroke:none"
             d="m 0,0 v 10.615 c 1,0.613 3.588,1.412 5.408,2.384 l 7.339,-7.508 c 0.711,-0.713 1.785,-0.713 2.494,0 l 10.713,10.76 c 0.711,0.711 0.688,1.865 -0.025,2.573 l -7.518,6.961 c 0.972,1.82 1.763,2.201 2.373,5.201 h 10.618 c 1.007,0 2.598,1.914 2.598,2.923 v 15.209 c 0,1.007 -1.591,2.868 -2.598,2.868 H 20.784 c -0.61,1 -1.411,3.409 -2.383,5.227 l 7.509,7.248 c 0.712,0.711 0.712,1.73 0,2.447 L 15.15,77.595 c -0.71,0.718 -1.861,0.685 -2.572,-0.033 l -7.17,-7.52 C 3.588,71.012 1,71.794 0,72.414 v 10.614 c 0,1.004 -1.494,2.958 -2.503,2.958 H -17.719 C -18.722,85.986 -20,84.032 -20,83.028 V 72.414 c -2,-0.62 -3.7,-1.419 -5.51,-2.389 l -7.398,7.504 c -0.709,0.718 -1.809,0.718 -2.521,0 L -46.163,66.777 c -0.709,-0.716 -0.695,-1.866 0.017,-2.579 l 7.521,-6.985 c -0.971,-1.818 -1.771,-4.227 -2.38,-5.227 H -51.618 C -52.626,51.986 -54,50.125 -54,49.118 V 33.909 c 0,-1.009 1.374,-2.923 2.382,-2.923 h 10.613 c 0.609,-3 1.416,-3.381 2.389,-5.201 l -7.517,-7.238 c -0.711,-0.706 -0.711,-1.722 0,-2.435 L -35.37,5.422 c 0.709,-0.714 1.868,-0.682 2.575,0.033 l 7.285,7.528 C -23.7,12.012 -22,11.228 -20,10.615 V 0 c 0,-1.007 1.278,-1.014 2.281,-1.014 H -2.503 C -1.494,-1.014 0,-1.007 0,0" /></g><g
           transform="translate(406,105.0137)"
           id="g112"><path
             id="path114"
             style="fill:none;stroke:#231f20;stroke-width:6;stroke-linecap:butt;stroke-linejoin:round;stroke-miterlimit:10;stroke-dasharray:none;stroke-opacity:1"
             d="m 0,0 v 10.615 c 1,0.613 3.588,1.412 5.408,2.384 l 7.339,-7.508 c 0.711,-0.713 1.785,-0.713 2.494,0 l 10.713,10.76 c 0.711,0.711 0.688,1.865 -0.025,2.573 l -7.518,6.961 c 0.972,1.82 1.763,2.201 2.373,5.201 h 10.618 c 1.007,0 2.598,1.914 2.598,2.923 v 15.209 c 0,1.007 -1.591,2.868 -2.598,2.868 H 20.784 c -0.61,1 -1.411,3.409 -2.383,5.227 l 7.509,7.248 c 0.712,0.711 0.712,1.73 0,2.447 L 15.15,77.595 c -0.71,0.718 -1.861,0.685 -2.572,-0.033 l -7.17,-7.52 C 3.588,71.012 1,71.794 0,72.414 v 10.614 c 0,1.004 -1.494,2.958 -2.503,2.958 H -17.719 C -18.722,85.986 -20,84.032 -20,83.028 V 72.414 c -2,-0.62 -3.7,-1.419 -5.51,-2.389 l -7.398,7.504 c -0.709,0.718 -1.809,0.718 -2.521,0 L -46.163,66.777 c -0.709,-0.716 -0.695,-1.866 0.017,-2.579 l 7.521,-6.985 c -0.971,-1.818 -1.771,-4.227 -2.38,-5.227 H -51.618 C -52.626,51.986 -54,50.125 -54,49.118 V 33.909 c 0,-1.009 1.374,-2.923 2.382,-2.923 h 10.613 c 0.609,-3 1.416,-3.381 2.389,-5.201 l -7.517,-7.238 c -0.711,-0.706 -0.711,-1.722 0,-2.435 L -35.37,5.422 c 0.709,-0.714 1.868,-0.682 2.575,0.033 l 7.285,7.528 C -23.7,12.012 -22,11.228 -20,10.615 V 0 c 0,-1.007 1.278,-1.014 2.281,-1.014 H -2.503 C -1.494,-1.014 0,-1.007 0,0 Z" /></g><g
           transform="translate(395.4985,132.373)"
           id="g116"><path
             id="path118"
             style="fill:#f1f2f2;fill-opacity:1;fill-rule:nonzero;stroke:none"
             d="m 0,0 c -7.535,0 -13.646,6.114 -13.646,13.651 0,7.536 6.111,13.65 13.646,13.65 7.542,0 13.652,-6.114 13.652,-13.65 C 13.652,6.114 7.542,0 0,0" /></g><path
           id="path120"
           style="fill:#ffffff;fill-opacity:1;fill-rule:nonzero;stroke:#231f20;stroke-width:6;stroke-linecap:butt;stroke-linejoin:round;stroke-miterlimit:10;stroke-dasharray:none;stroke-opacity:1"
           d="M 220,38 H 88 v 106 h 132 z" /><path
           id="path122"
           style="fill:#d1d3d4;fill-opacity:1;fill-rule:nonzero;stroke:none"
           d="M 208,50 H 100 v 80 h 108 z" /><g
           transform="translate(99.0742,77.6748)"
           id="g124"><path
             id="path126"
             style="fill:none;stroke:#231f20;stroke-width:5.86000013;stroke-linecap:butt;stroke-linejoin:round;stroke-miterlimit:10;stroke-dasharray:none;stroke-opacity:1"
             d="M 0,0 45.242,23.495 89.498,-2.003" /></g><g
           transform="translate(169.6401,86.5781)"
           id="g128"><path
             id="path130"
             style="fill:none;stroke:#231f20;stroke-width:5.86000013;stroke-linecap:butt;stroke-linejoin:round;stroke-miterlimit:10;stroke-dasharray:none;stroke-opacity:1"
             d="M 0,0 16.43,14.592 38.928,0" /></g><g
           transform="translate(174.0723,115.4229)"
           id="g132"><path
             id="path134"
             style="fill:#ffffff;fill-opacity:1;fill-rule:nonzero;stroke:none"
             d="m 0,0 c 0,-5.662 -4.589,-10.252 -10.25,-10.252 -5.663,0 -10.254,4.59 -10.254,10.252 0,5.66 4.591,10.248 10.254,10.248 C -4.589,10.248 0,5.66 0,0" /></g><g
           transform="translate(325,95)"
           id="g136"><path
             id="path138"
             style="fill:#e6e7e8;fill-opacity:1;fill-rule:nonzero;stroke:none"
             d="m 0,0 h -83 v 56 h 42 V 76.831 L -18.671,56 H 0 Z" /></g><g
           transform="translate(269.4053,133.8877)"
           id="g140"><path
             id="path142"
             style="fill:none;stroke:#231f20;stroke-width:5.86000013;stroke-linecap:butt;stroke-linejoin:round;stroke-miterlimit:10;stroke-dasharray:none;stroke-opacity:1"
             d="M 0,0 -11.208,-11.206 0,-22.409" /></g><g
           transform="translate(300.7461,111.4785)"
           id="g144"><path
             id="path146"
             style="fill:none;stroke:#231f20;stroke-width:5.86000013;stroke-linecap:butt;stroke-linejoin:round;stroke-miterlimit:10;stroke-dasharray:none;stroke-opacity:1"
             d="M 0,0 11.206,11.203 0,22.409" /></g><g
           transform="translate(277.2837,108.499)"
           id="g148"><path
             id="path150"
             style="fill:none;stroke:#231f20;stroke-width:5.86000013;stroke-linecap:butt;stroke-linejoin:round;stroke-miterlimit:10;stroke-dasharray:none;stroke-opacity:1"
             d="M 0,0 13.656,28.717" /></g><g
           transform="translate(284,202)"
           id="g152"><path
             id="path154"
             style="fill:none;stroke:#231f20;stroke-width:6;stroke-linecap:butt;stroke-linejoin:round;stroke-miterlimit:10;stroke-dasharray:none;stroke-opacity:1"
             d="M 0,0 H 58" /></g><g
           transform="translate(284,189)"
           id="g156"><path
             id="path158"
             style="fill:none;stroke:#231f20;stroke-width:6;stroke-linecap:butt;stroke-linejoin:round;stroke-miterlimit:10;stroke-dasharray:none;stroke-opacity:1"
             d="M 0,0 H 46" /></g><g
           transform="translate(284,176)"
           id="g160"><path
             id="path162"
             style="fill:none;stroke:#231f20;stroke-width:6;stroke-linecap:butt;stroke-linejoin:round;stroke-miterlimit:10;stroke-dasharray:none;stroke-opacity:1"
             d="M 0,0 H 17" /></g></g></g></g></svg>