<?xml version="1.0" encoding="UTF-8"?>
<svg xmlns="http://www.w3.org/2000/svg" xmlns:xlink="http://www.w3.org/1999/xlink" width="39.51pt" height="45.6pt" viewBox="0 0 39.51 45.6" version="1.1">
<defs>
<clipPath id="clip1">
  <path d="M 0 20 L 39.511719 20 L 39.511719 45.601563 L 0 45.601563 Z M 0 20 "/>
</clipPath>
</defs>
<g id="surface1">
<path style=" stroke:none;fill-rule:nonzero;fill:rgb(0%,0%,0%);fill-opacity:1;" d="M 25.527344 17.785156 C 26.257813 17.785156 27.273438 17.40625 28.320313 16.164063 L 28.320313 17.597656 L 30.730469 17.597656 L 30.730469 4.617188 L 28.320313 4.617188 L 28.320313 14.46875 C 28.023438 14.835938 27.371094 15.441406 26.898438 15.441406 C 26.382813 15.441406 26.257813 15.089844 26.257813 14.566406 L 26.257813 4.617188 L 23.84375 4.617188 L 23.84375 15.464844 C 23.84375 16.75 24.234375 17.785156 25.527344 17.785156 "/>
<path style=" stroke:none;fill-rule:nonzero;fill:rgb(0%,0%,0%);fill-opacity:1;" d="M 17.273438 8.210938 C 17.273438 7.5 17.597656 6.972656 18.277344 6.972656 C 19.019531 6.972656 19.335938 7.484375 19.335938 8.210938 L 19.335938 14.25 C 19.335938 14.957031 18.972656 15.480469 18.324219 15.480469 C 17.660156 15.480469 17.273438 14.933594 17.273438 14.25 Z M 14.789063 14.359375 C 14.789063 16.648438 15.984375 17.839844 18.324219 17.839844 C 20.265625 17.839844 21.792969 16.539063 21.792969 14.359375 L 21.792969 7.996094 C 21.792969 5.964844 20.28125 4.507813 18.324219 4.507813 C 16.199219 4.507813 14.789063 5.914063 14.789063 7.996094 "/>
<path style=" stroke:none;fill-rule:nonzero;fill:rgb(0%,0%,0%);fill-opacity:1;" d="M 9.03125 17.597656 L 11.75 17.597656 L 11.75 10.460938 L 14.910156 0 L 12.152344 0 L 10.40625 7.03125 L 8.53125 0 L 5.796875 0 L 9.03125 10.460938 "/>
<g clip-path="url(#clip1)" clip-rule="nonzero">
<path style=" stroke:none;fill-rule:nonzero;fill:rgb(0%,0%,0%);fill-opacity:1;" d="M 35.875 35.566406 L 31.480469 35.566406 L 31.480469 37.898438 C 31.480469 38.828125 31.558594 39.628906 32.484375 39.628906 C 33.453125 39.628906 33.511719 38.976563 33.511719 37.898438 L 33.511719 37.039063 L 35.875 37.039063 L 35.875 37.96875 C 35.875 40.351563 34.851563 41.792969 32.429688 41.792969 C 30.234375 41.792969 29.113281 40.195313 29.113281 37.96875 L 29.113281 32.417969 C 29.113281 30.273438 30.53125 28.78125 32.605469 28.78125 C 34.808594 28.78125 35.875 30.183594 35.875 32.417969 Z M 27.378906 38.898438 C 27.378906 40.425781 26.808594 41.613281 25.277344 41.613281 C 24.4375 41.613281 23.734375 41.308594 23.09375 40.507813 L 23.09375 41.457031 L 20.773438 41.457031 L 20.773438 24.699219 L 23.09375 24.699219 L 23.09375 30.09375 C 23.613281 29.460938 24.316406 28.9375 25.136719 28.9375 C 26.820313 28.9375 27.378906 30.363281 27.378906 32.039063 Z M 18.53125 41.457031 L 16.230469 41.457031 L 16.230469 40.09375 C 15.808594 40.59375 15.367188 40.980469 14.910156 41.242188 C 13.671875 41.953125 11.972656 41.9375 11.972656 39.425781 L 11.972656 29.097656 L 14.269531 29.097656 L 14.269531 38.570313 C 14.269531 39.070313 14.390625 39.40625 14.882813 39.40625 C 15.328125 39.40625 15.953125 38.832031 16.230469 38.480469 L 16.230469 29.097656 L 18.53125 29.097656 Z M 9.324219 41.457031 L 6.734375 41.457031 L 6.734375 27.132813 L 4.058594 27.132813 L 4.058594 24.699219 L 12.003906 24.699219 L 12.003906 27.132813 L 9.324219 27.132813 Z M 33.980469 20.550781 L 5.53125 20.550781 C 2.476563 20.550781 0 23.03125 0 26.085938 L 0 40.066406 C 0 43.125 2.476563 45.601563 5.53125 45.601563 L 33.980469 45.601563 C 37.039063 45.601563 39.515625 43.125 39.515625 40.066406 L 39.515625 26.085938 C 39.515625 23.03125 37.039063 20.550781 33.980469 20.550781 "/>
</g>
<path style=" stroke:none;fill-rule:nonzero;fill:rgb(0%,0%,0%);fill-opacity:1;" d="M 32.507813 30.945313 C 31.65625 30.945313 31.480469 31.546875 31.480469 32.398438 L 31.480469 33.648438 L 33.511719 33.648438 L 33.511719 32.398438 C 33.511719 31.558594 33.332031 30.945313 32.507813 30.945313 "/>
<path style=" stroke:none;fill-rule:nonzero;fill:rgb(0%,0%,0%);fill-opacity:1;" d="M 23.570313 31.023438 C 23.40625 31.105469 23.25 31.230469 23.09375 31.402344 L 23.09375 39.105469 C 23.28125 39.304688 23.464844 39.453125 23.640625 39.539063 C 24.011719 39.730469 24.5625 39.746094 24.8125 39.414063 C 24.949219 39.238281 25.015625 38.957031 25.015625 38.5625 L 25.015625 32.175781 C 25.015625 31.757813 24.929688 31.441406 24.769531 31.226563 C 24.492188 30.859375 23.972656 30.820313 23.570313 31.023438 "/>
</g>
</svg>
